<?xml version="1.0" standalone="no"?>
<!DOCTYPE svg PUBLIC "-//W3C//DTD SVG 20010904//EN"
 "http://www.w3.org/TR/2001/REC-SVG-20010904/DTD/svg10.dtd">
<svg version="1.0" xmlns="http://www.w3.org/2000/svg"
 width="1200.000000pt" height="1200.000000pt" viewBox="0 0 1200.000000 1200.000000"
 preserveAspectRatio="xMidYMid meet">

<g transform="translate(0.000000,1200.000000) scale(0.100000,-0.100000)"
fill="#000000" stroke="none">
<path d="M0 6000 l0 -6000 6000 0 6000 0 0 6000 0 6000 -6000 0 -6000 0 0
-6000z m7575 1200 l0 -1575 -1575 0 -1575 0 -3 1565 c-1 861 0 1571 3 1578 3
10 324 12 1577 10 l1573 -3 0 -1575z m-2415 -2662 c58 -40 62 -108 8 -153 -92
-78 -230 36 -157 129 39 50 97 59 149 24z m-2059 -46 c116 -46 173 -134 173
-267 1 -115 -40 -188 -142 -255 l-23 -15 101 -189 c55 -104 100 -193 100 -198
0 -5 -47 -7 -106 -6 l-105 3 -89 170 -89 170 -80 3 -81 3 0 -176 0 -176 -97 3
-98 3 -1 478 0 479 240 -4 c221 -3 246 -6 297 -26z m788 -218 c65 -19 133 -79
167 -146 23 -46 43 -150 44 -230 l0 -38 -231 0 -230 0 6 -22 c40 -132 182
-173 302 -88 25 17 46 30 47 28 0 -2 21 -25 45 -51 l45 -47 -25 -26 c-91 -98
-279 -133 -412 -75 -66 28 -140 101 -168 164 -31 71 -38 220 -14 303 53 188
233 285 424 228z m1940 0 c65 -19 133 -79 167 -146 23 -46 43 -150 44 -230 l0
-38 -231 0 -230 0 6 -22 c40 -132 182 -173 302 -88 25 17 46 30 47 28 0 -2 21
-25 45 -51 l45 -47 -25 -26 c-91 -98 -279 -133 -412 -75 -66 28 -140 101 -168
164 -31 71 -38 220 -14 303 53 188 233 285 424 228z m2273 4 c23 -7 53 -28 74
-51 l36 -39 31 30 c47 44 94 64 163 70 110 8 181 -29 223 -117 26 -55 26 -59
29 -333 l4 -278 -101 0 -101 0 0 260 0 261 -25 24 c-42 43 -136 32 -177 -19
-16 -19 -18 -49 -18 -273 l0 -253 -94 0 -95 0 -3 259 c-3 259 -3 259 -27 285
-20 21 -34 26 -73 26 -55 0 -84 -12 -110 -44 -16 -19 -18 -49 -18 -273 l0
-253 -95 0 -95 0 0 355 0 355 89 0 89 0 7 -30 7 -31 34 26 c68 52 162 68 246
43z m1177 -4 c65 -19 133 -79 167 -146 23 -46 43 -150 44 -230 l0 -38 -231 0
-230 0 6 -22 c40 -132 182 -173 302 -88 25 17 46 30 47 28 0 -2 21 -25 45 -51
l45 -47 -25 -26 c-91 -98 -279 -133 -412 -75 -66 28 -140 101 -168 164 -31 71
-38 220 -14 303 53 188 233 285 424 228z m-4880 -41 c87 -320 117 -423 121
-423 4 0 51 165 122 428 l9 32 99 0 c55 0 100 -3 99 -7 0 -5 -53 -163 -118
-353 l-118 -345 -93 0 -93 0 -112 330 c-62 182 -115 340 -119 353 -7 22 -6 22
93 22 l100 0 10 -37z m796 -318 l0 -355 -97 0 -98 0 0 355 0 355 98 0 97 0 0
-355z m1194 131 c52 -253 38 -257 122 39 l53 185 70 0 71 0 59 -210 c33 -115
62 -214 66 -219 3 -6 26 87 50 207 l45 217 93 3 c50 1 92 0 92 -2 0 -3 -13
-56 -29 -118 -16 -62 -53 -203 -81 -313 -28 -110 -56 -217 -61 -238 l-10 -38
-81 3 -81 3 -66 219 -66 219 -37 -119 c-20 -66 -50 -165 -68 -221 l-31 -103
-79 0 c-66 0 -79 3 -84 18 -11 39 -176 680 -176 686 0 4 41 5 92 4 l92 -3 45
-219z m972 -306 c22 -12 49 -61 49 -89 0 -86 -110 -133 -178 -76 -16 14 -33
37 -36 51 -10 38 11 92 42 109 32 17 95 19 123 5z"/>
<path d="M4500 7200 l0 -1500 1500 0 1500 0 0 1500 0 1500 -1500 0 -1500 0 0
-1500z m980 940 c11 -11 20 -26 20 -34 0 -7 21 -24 47 -38 54 -27 107 -91 123
-146 5 -20 10 -107 10 -193 0 -160 4 -179 42 -179 13 0 18 -8 18 -30 l0 -30
-105 0 -105 0 0 -29 c0 -17 -11 -42 -26 -60 -53 -63 -154 -28 -154 54 l0 35
-110 0 -110 0 0 29 c0 25 4 30 28 33 l27 3 5 180 c5 159 8 185 27 221 29 55
74 99 123 120 22 10 40 25 40 33 0 23 31 51 57 51 12 0 32 -9 43 -20z m1290
-195 l24 -26 -732 -732 -732 -732 -27 28 -28 27 730 730 c402 402 733 730 736
730 3 0 16 -11 29 -25z m55 -1075 c35 -19 55 -37 72 -69 45 -86 19 -210 -53
-253 -19 -11 -34 -22 -34 -25 0 -2 11 -23 24 -46 13 -23 44 -81 70 -129 l47
-88 -75 0 -75 0 -58 115 -58 115 -52 0 -53 0 0 -115 0 -115 -65 0 -65 0 0 321
0 321 163 -4 c151 -3 166 -5 212 -28z"/>
<path d="M5390 8028 c-19 -5 -49 -20 -66 -33 -55 -42 -62 -71 -66 -268 l-3
-177 183 0 182 0 0 165 c0 176 -8 215 -53 263 -44 47 -116 68 -177 50z"/>
<path d="M5422 7481 c-20 -12 -10 -46 14 -49 25 -4 40 24 23 44 -13 16 -19 17
-37 5z"/>
<path d="M6580 6694 l0 -96 80 4 c93 4 118 21 127 86 5 36 2 45 -25 72 -29 28
-35 30 -106 30 l-76 0 0 -96z"/>
<path d="M2760 4215 l0 -145 103 0 c77 0 110 4 136 18 54 27 76 65 76 127 0
62 -22 100 -76 127 -26 14 -59 18 -136 18 l-103 0 0 -145z"/>
<path d="M3700 4103 c-17 -16 -37 -46 -45 -68 l-13 -40 130 -3 c72 -1 133 -1
135 1 11 12 -19 95 -42 115 -40 34 -124 31 -165 -5z"/>
<path d="M5640 4103 c-17 -16 -37 -46 -45 -68 l-13 -40 130 -3 c72 -1 133 -1
135 1 11 12 -19 95 -42 115 -40 34 -124 31 -165 -5z"/>
<path d="M9090 4103 c-17 -16 -37 -46 -45 -68 l-13 -40 130 -3 c72 -1 133 -1
135 1 11 12 -19 95 -42 115 -40 34 -124 31 -165 -5z"/>
</g>
</svg>
